<svg width="128" height="43" xmlns="http://www.w3.org/2000/svg" fill="none">

 <g>
  <title>Layer 1</title>
  <path id="svg_1" fill="#ffffff" d="m6.9375,34.6875c-0.875,-0.0313 -1.72656,-0.2734 -2.55469,-0.7266c-0.8125,-0.4375 -1.53125,-1.0703 -2.15625,-1.8984c-0.60937,-0.8437 -1.08594,-1.875 -1.42968,-3.0937c-0.34375,-1.2188 -0.48438,-2.625 -0.42188,-4.2188c0.0625,-1.5938 0.34375,-3.0078 0.84375,-4.2422c0.51563,-1.2344 1.14844,-2.2578 1.89844,-3.0703c0.75,-0.8281 1.57031,-1.4375 2.46093,-1.8281c0.90626,-0.3906 1.79688,-0.5391 2.67188,-0.4453c0.53125,0.0625 1,0.2109 1.40625,0.4453c0.40625,0.2344 0.75785,0.5234 1.05465,0.8672c0.2969,0.3281 0.5469,0.6875 0.75,1.0781c0.2032,0.375 0.3672,0.7422 0.4922,1.1015c0.0938,0.0938 0.1953,0.1407 0.3047,0.1407c0.2969,0.0156 0.5625,-0.2031 0.7969,-0.6563c0.25,-0.4687 0.4609,-1.2344 0.6328,-2.2968l0.6563,0.0703c-0.1407,0.5312 -0.2969,1.1484 -0.4688,1.8515c-0.1562,0.6875 -0.3047,1.3985 -0.4453,2.1328c-0.125,0.7344 -0.2344,1.461 -0.3281,2.1797c-0.0782,0.7188 -0.1016,1.3672 -0.0704,1.9453c-0.2343,-0.0937 -0.4531,-0.1562 -0.6562,-0.1875c-0.2031,-0.0468 -0.3906,-0.0781 -0.5625,-0.0937c-0.1875,-0.0156 -0.3594,-0.0156 -0.5156,0c0.0312,-0.9688 0,-1.8984 -0.0938,-2.7891c-0.0781,-0.8906 -0.2343,-1.6719 -0.4687,-2.3437c-0.2344,-0.6875 -0.5469,-1.2422 -0.93752,-1.6641c-0.375,-0.4219 -0.84376,-0.6562 -1.40626,-0.7031c-0.5,-0.0469 -1.03906,0.0625 -1.61718,0.3281c-0.57813,0.25 -1.125,0.7109 -1.64063,1.3828c-0.51562,0.6563 -0.96093,1.5391 -1.33593,2.6485c-0.375,1.1093 -0.60938,2.4922 -0.70313,4.1484c-0.04687,0.875 -0.01563,1.7969 0.09375,2.7656c0.10938,0.9688 0.32812,1.8672 0.65625,2.6953c0.32813,0.8125 0.77344,1.4922 1.33594,2.0391c0.5625,0.5312 1.27343,0.7891 2.13281,0.7734c0.65625,-0.0468 1.26562,-0.2187 1.82812,-0.5156c0.48438,-0.2656 0.96098,-0.664 1.42968,-1.1953c0.4688,-0.5313 0.8047,-1.2969 1.0078,-2.2969l0.7735,0.4688c-0.125,0.4062 -0.3125,0.914 -0.5625,1.5234c-0.25,0.5938 -0.5938,1.1719 -1.0313,1.7344c-0.4219,0.5625 -0.95311,1.0312 -1.59374,1.4062c-0.625,0.3907 -1.36718,0.5704 -2.22656,0.5391zm19.0547,-2.5547c-0.0469,0.2031 -0.125,0.4297 -0.2344,0.6797c-0.1094,0.2344 -0.2656,0.4453 -0.4687,0.6328c-0.2032,0.2031 -0.4532,0.3516 -0.75,0.4453c-0.2813,0.1094 -0.6172,0.1172 -1.0079,0.0235c-0.3906,-0.0938 -0.7031,-0.3125 -0.9374,-0.6563c-0.2188,-0.3437 -0.375,-0.7812 -0.4688,-1.3125c-0.1406,0.2188 -0.3203,0.4531 -0.5391,0.7031c-0.2031,0.2344 -0.4531,0.4454 -0.75,0.6328c-0.2812,0.2032 -0.6093,0.3594 -0.9843,0.4688c-0.3594,0.125 -0.7578,0.1719 -1.1954,0.1406c-0.5937,-0.0468 -1.125,-0.2109 -1.5937,-0.4922c-0.4531,-0.2656 -0.8359,-0.6093 -1.1484,-1.0312c-0.3125,-0.4375 -0.5469,-0.9297 -0.7032,-1.4766c-0.1406,-0.5468 -0.1797,-1.1172 -0.1171,-1.7109c0.0624,-0.5938 0.2187,-1.1016 0.4687,-1.5235c0.2656,-0.4218 0.5937,-0.7578 0.9844,-1.0078c0.3906,-0.2656 0.8359,-0.4453 1.3359,-0.539c0.5,-0.0938 1.0156,-0.1172 1.5469,-0.0703c0.7031,0.0781 1.2891,0.289 1.7578,0.6328c0.4687,0.3281 0.8281,0.6953 1.0781,1.1015c0.0782,-0.7187 0.1016,-1.4843 0.0703,-2.2968c-0.0312,-0.8282 -0.1562,-1.5782 -0.375,-2.25c-0.2187,-0.6875 -0.5547,-1.25 -1.0078,-1.6875c-0.4531,-0.4532 -1.0703,-0.6719 -1.8515,-0.6563c-0.5469,0 -1,0.1016 -1.3594,0.3047c-0.3438,0.1875 -0.625,0.4141 -0.8438,0.6797c-0.2031,0.2656 -0.3437,0.539 -0.4218,0.8203c-0.0782,0.2656 -0.1172,0.4766 -0.1172,0.6328c0,0.1563 0.0468,0.3359 0.1406,0.5391c0.0938,0.1875 0.2266,0.3672 0.3984,0.539c0.1719,0.1563 0.375,0.2813 0.6094,0.375c0.2344,0.0938 0.5,0.1172 0.7969,0.0704c0.2031,-0.0313 0.3828,-0.1016 0.5391,-0.211c0.1562,-0.1094 0.2812,-0.2344 0.375,-0.375c0.0937,-0.1406 0.1562,-0.289 0.1874,-0.4453c0.0469,-0.1563 0.0704,-0.3047 0.0704,-0.4453c0,-0.1563 -0.0469,-0.2891 -0.1407,-0.3984c-0.0937,-0.125 -0.2031,-0.2188 -0.3281,-0.2813c-0.125,-0.0625 -0.2656,-0.0781 -0.4219,-0.0469c-0.1562,0.0156 -0.2968,0.086 -0.4218,0.211c0.1406,-0.0157 0.2812,0.0156 0.4218,0.0937c0.1407,0.0625 0.211,0.2031 0.211,0.4219c0,0.1719 -0.0703,0.3047 -0.211,0.3984c-0.1406,0.0782 -0.2968,0.1094 -0.4687,0.0938c-0.1719,-0.0156 -0.3281,-0.086 -0.4688,-0.211c-0.1406,-0.1406 -0.2109,-0.3515 -0.2109,-0.6328c0,-0.2656 0.1094,-0.4922 0.3281,-0.6797c0.2344,-0.1875 0.5,-0.2812 0.7969,-0.2812c0.3594,0 0.6875,0.1406 0.9844,0.4219c0.3125,0.2812 0.4687,0.6718 0.4687,1.1718c0,0.1719 -0.0468,0.3594 -0.1406,0.5625c-0.0781,0.1875 -0.2031,0.3672 -0.375,0.5391c-0.1719,0.1719 -0.3984,0.3203 -0.6797,0.4453c-0.2812,0.1094 -0.6094,0.1641 -0.9844,0.1641c-0.375,0 -0.7109,-0.0703 -1.0078,-0.211c-0.2969,-0.1562 -0.5469,-0.3437 -0.75,-0.5625c-0.2031,-0.2343 -0.3593,-0.4843 -0.4687,-0.75c-0.0938,-0.2812 -0.1406,-0.5468 -0.1406,-0.7968c0,-0.25 0.0781,-0.5625 0.2343,-0.9375c0.1563,-0.3907 0.3985,-0.7578 0.7266,-1.1016c0.3437,-0.3438 0.7656,-0.6406 1.2656,-0.8906c0.5156,-0.25 1.125,-0.375 1.8281,-0.375c1.8907,0 3.1954,0.664 3.9141,1.9922c0.7187,1.3125 0.8359,3.2734 0.3516,5.8828c-0.1875,1.0468 -0.2891,1.8984 -0.3047,2.5547c-0.0156,0.6562 0.0234,1.1797 0.1172,1.5703c0.0937,0.3906 0.2265,0.664 0.3984,0.8203c0.1875,0.1562 0.3828,0.25 0.5859,0.2812c0.1719,0.0313 0.336,0.0157 0.4922,-0.0468c0.125,-0.0313 0.2422,-0.1016 0.3516,-0.211c0.125,-0.125 0.2109,-0.3125 0.2578,-0.5625l0.3047,0.1172zm-3.961,-1.1953c-0.0156,-0.5625 0.0079,-1.1563 0.0704,-1.7813c-0.125,-0.4843 -0.3828,-0.9296 -0.7735,-1.3359c-0.375,-0.4219 -0.8047,-0.6719 -1.289,-0.75c-0.3594,-0.0625 -0.7344,-0.0547 -1.125,0.0235c-0.375,0.0624 -0.711,0.2031 -1.0079,0.4218c-0.2968,0.2032 -0.5312,0.4922 -0.7031,0.8672c-0.1719,0.375 -0.2343,0.836 -0.1875,1.3828c0.0782,0.8438 0.3125,1.4844 0.7032,1.9219c0.4062,0.4375 1,0.6328 1.7812,0.5859c0.5938,-0.0312 1.0938,-0.1796 1.5,-0.4453c0.4219,-0.2812 0.7656,-0.5781 1.0312,-0.8906zm9.5391,1.2891c0.3594,0 0.6953,-0.125 1.0078,-0.375c0.3125,-0.25 0.5313,-0.6719 0.6563,-1.2657l0.4922,0.1875c-0.0469,0.375 -0.1954,0.7578 -0.4454,1.1485c-0.25,0.375 -0.5703,0.6953 -0.9609,0.9609c-0.3906,0.2656 -0.8359,0.4375 -1.3359,0.5156c-0.4844,0.0782 -0.9844,0 -1.5,-0.2343c-0.5625,-0.2657 -0.9688,-0.6094 -1.2188,-1.0313c-0.25,-0.4219 -0.4062,-0.9062 -0.4687,-1.4531c-0.0625,-0.5625 -0.0703,-1.1641 -0.0235,-1.8047c0.0469,-0.6562 0.0704,-1.3359 0.0704,-2.0391c0,-0.4062 -0.0079,-0.8828 -0.0235,-1.4297c0,-0.5624 -0.0156,-1.1562 -0.0469,-1.7812c-0.0156,-0.625 -0.0468,-1.2656 -0.0937,-1.9219c-0.0469,-0.6719 -0.0938,-1.3281 -0.1406,-1.9687c-0.5313,0.0625 -1.0391,0.1406 -1.5235,0.2344c-0.4687,0.0781 -0.8672,0.1796 -1.1953,0.3046c-0.0156,-0.1406 -0.0156,-0.25 0,-0.3281c0,-0.0781 0.0078,-0.1484 0.0235,-0.2109c0,-0.0782 0,-0.1563 0,-0.2344c0,-0.0938 -0.0157,-0.2188 -0.0469,-0.375c0.375,-0.0312 0.789,-0.0625 1.2422,-0.0938c0.4687,-0.0312 0.9453,-0.0624 1.4297,-0.0937c-0.0157,-0.2187 -0.0313,-0.4297 -0.0469,-0.6328c-0.0157,-0.2188 -0.0391,-0.4297 -0.0703,-0.6328c-0.0782,-0.7344 -0.2266,-1.3203 -0.4454,-1.7578c-0.2031,-0.4375 -0.4296,-0.7735 -0.6796,-1.0079c-0.25,-0.2343 -0.4844,-0.3906 -0.7032,-0.4687c-0.2187,-0.0937 -0.3828,-0.1563 -0.4922,-0.1875l0.0704,-0.4453c0.2968,0.125 0.664,0.2109 1.1015,0.2578c0.4375,0.0313 0.8907,0.0313 1.3594,0c0.4844,-0.0469 0.9531,-0.125 1.4063,-0.2344c0.4687,-0.1093 0.875,-0.25 1.2187,-0.4219c-0.1563,0.4376 -0.2969,1.1329 -0.4219,2.086c-0.1094,0.9531 -0.2031,2.0625 -0.2812,3.3281c0.8125,-0.0469 1.3984,-0.1094 1.7578,-0.1875c-0.0781,0.0938 -0.1172,0.25 -0.1172,0.4688c0,0.2031 0.0234,0.3906 0.0703,0.5625c-0.2656,-0.0313 -0.5469,-0.0469 -0.8437,-0.0469c-0.2969,-0.0156 -0.6016,-0.0234 -0.9141,-0.0234c-0.0469,0.9062 -0.0781,1.8515 -0.0937,2.8359c-0.0157,0.9844 -0.0079,1.9609 0.0234,2.9297c0.0469,0.9531 0.1094,1.8906 0.1875,2.8125c0.0937,0.9062 0.2109,1.7422 0.3515,2.5078c0.125,0.5469 0.3438,0.9375 0.6563,1.1719c0.3125,0.2343 0.6484,0.3593 1.0078,0.375zm22.2656,-14.4141c-0.3281,0.2187 -0.6484,0.4609 -0.9609,0.7266c-0.3125,0.2656 -0.5859,0.6093 -0.8203,1.0312c-0.2344,0.4219 -0.4141,0.9531 -0.5391,1.5938c-0.125,0.625 -0.1562,1.4218 -0.0937,2.3906c0.0312,0.6406 0.0625,1.3359 0.0937,2.0859c0.0469,0.7344 0.0547,1.4766 0.0235,2.2266c-0.0313,0.75 -0.1172,1.4766 -0.2579,2.1797c-0.1406,0.6875 -0.375,1.3047 -0.7031,1.8515c-0.3281,0.5469 -0.7656,0.9922 -1.3125,1.336c-0.5468,0.3437 -1.2344,0.5312 -2.0625,0.5625c-0.6093,0.0312 -1.1484,-0.0547 -1.6172,-0.2578c-0.4531,-0.2032 -0.8515,-0.4766 -1.1953,-0.8203c-0.3281,-0.3594 -0.6015,-0.7657 -0.8203,-1.2188c-0.2187,-0.4688 -0.3984,-0.9531 -0.5391,-1.4531c-0.2343,0.6406 -0.5156,1.2343 -0.8437,1.7812c-0.3125,0.5469 -0.7266,0.9844 -1.2422,1.3125c-0.5,0.3438 -1.1094,0.5391 -1.8281,0.586c-0.7031,0.0625 -1.5547,-0.0782 -2.5547,-0.4219c-0.7344,-0.25 -1.3125,-0.6094 -1.7344,-1.0781c-0.4219,-0.4844 -0.7343,-1.0235 -0.9375,-1.6172c-0.2031,-0.6094 -0.3203,-1.2422 -0.3515,-1.8985c-0.0313,-0.6718 -0.0235,-1.3125 0.0234,-1.9218c0.0469,-0.625 0.1172,-1.1953 0.2109,-1.711c0.0938,-0.5156 0.1641,-0.9297 0.211,-1.2422c0.1562,-1 0.2812,-1.9453 0.375,-2.8359c0.1094,-0.9062 0.125,-1.7109 0.0468,-2.4141c-0.0781,-0.7187 -0.2812,-1.3125 -0.6093,-1.7812c-0.3125,-0.4844 -0.8125,-0.8047 -1.5,-0.9609l0.1172,-0.4688c0.2968,0.0469 0.6484,0.1016 1.0547,0.1641c0.4062,0.0625 0.8281,0.1171 1.2656,0.164c0.4375,0.0313 0.8672,0.0469 1.289,0.0469c0.4375,-0.0156 0.8282,-0.0625 1.1719,-0.1406c-0.0781,0.6094 -0.1875,1.3672 -0.3281,2.2734c-0.125,0.8906 -0.25,1.8438 -0.375,2.8594c-0.125,1.0156 -0.2422,2.0547 -0.3516,3.1172c-0.0937,1.0468 -0.1484,2.0312 -0.164,2.9531c-0.0469,1.8594 0.164,3.2187 0.6328,4.0781c0.4844,0.8594 1.3281,1.2813 2.5312,1.2656c0.6094,-0.0156 1.1016,-0.2812 1.4766,-0.7968c0.375,-0.5156 0.664,-1.1563 0.8672,-1.9219c0.2187,-0.7656 0.3672,-1.5781 0.4453,-2.4375c0.0781,-0.875 0.1328,-1.6719 0.1641,-2.3906c0.0156,-0.7188 0.0156,-1.4141 0,-2.086c-0.0157,-0.6875 -0.0626,-1.3203 -0.1407,-1.8984c-0.0781,-0.5781 -0.1875,-1.0938 -0.3281,-1.5469c-0.125,-0.4687 -0.2812,-0.8437 -0.4688,-1.125c0.4376,-0.0156 0.8126,-0.0078 1.125,0.0235c0.3126,0.0312 0.6016,0.0703 0.8672,0.1172c0.2813,0.0312 0.5704,0.0546 0.8672,0.0703c0.2969,0.0156 0.6485,-0.0157 1.0547,-0.0938c-0.1719,0.4844 -0.3281,0.9844 -0.4687,1.5c-0.1407,0.5156 -0.2657,1.0781 -0.375,1.6875c-0.0938,0.6094 -0.1719,1.2891 -0.2344,2.0391c-0.0469,0.7343 -0.0703,1.5703 -0.0703,2.5078c0.0156,0.9375 0.0625,1.7891 0.1406,2.5547c0.0937,0.7656 0.25,1.414 0.4687,1.9453c0.2344,0.5156 0.5469,0.8984 0.9376,1.1484c0.4062,0.2344 0.9296,0.2891 1.5703,0.1641c0.6406,-0.1406 1.1406,-0.461 1.5,-0.961c0.3593,-0.5 0.6171,-1.1171 0.7734,-1.8515c0.1719,-0.7344 0.2656,-1.5547 0.2813,-2.4609c0.0312,-0.9219 0.0312,-1.8594 0,-2.8126c-0.0313,-0.9687 -0.086,-1.789 -0.1641,-2.4609c-0.0781,-0.6875 -0.2031,-1.25 -0.375,-1.6875c-0.1563,-0.4375 -0.3594,-0.7656 -0.6094,-0.9844c-0.25,-0.2343 -0.5547,-0.3828 -0.9141,-0.4453l0.0704,-0.5156c0.9531,0.1563 1.9375,0.2109 2.9531,0.1641c1.0156,-0.0625 2.0781,-0.2422 3.1875,-0.5391l0.0937,0.75zm0,15.0703c0.3594,-0.125 0.6563,-0.289 0.8907,-0.4922c0.2343,-0.2031 0.414,-0.4062 0.539,-0.6094c0.1563,-0.2343 0.2578,-0.4765 0.3047,-0.7265c0.3438,-1.5938 0.5156,-3.1094 0.5156,-4.5469c0,-1.4531 -0.1093,-2.6953 -0.3281,-3.7266c-0.0625,-0.3281 -0.1797,-0.6328 -0.3516,-0.914c-0.1406,-0.2344 -0.3359,-0.4531 -0.5859,-0.6563c-0.25,-0.2187 -0.5703,-0.3593 -0.9609,-0.4218l-0.0235,-0.375c0.3125,0.0312 0.6016,0.0547 0.8672,0.0703c0.2813,0 0.5235,0 0.7266,0l0.6562,0c0.1875,0.0156 0.375,0.0234 0.5625,0.0234c0.1719,0.0156 0.3438,0.0234 0.5157,0.0234c0.1875,0 0.3671,0.0157 0.539,0.0469c-0.0469,0.5625 -0.0859,1.1407 -0.1172,1.7344c-0.0312,0.5781 -0.0547,1.1016 -0.0703,1.5703c-0.0312,0.5469 -0.0468,1.0781 -0.0468,1.5938c-0.0313,0.5781 -0.0547,1.2109 -0.0704,1.8984c-0.0156,0.6719 -0.0078,1.3125 0.0235,1.9219c0.0312,0.6093 0.0859,1.1484 0.164,1.6172c0.0782,0.4531 0.2032,0.75 0.375,0.8906c0.0938,0.0625 0.2188,0.125 0.375,0.1875c0.125,0.0625 0.2891,0.125 0.4922,0.1875c0.2188,0.0625 0.4844,0.125 0.7969,0.1875l0.0234,0.3984c-0.3125,-0.0156 -0.6172,-0.0156 -0.914,0c-0.2813,0 -0.5313,0 -0.75,0c-0.2656,0.0156 -0.5156,0.0235 -0.75,0.0235c-0.3282,0.0156 -0.6797,0.0468 -1.0547,0.0937c-0.3125,0.0313 -0.6641,0.0703 -1.0547,0.1172c-0.3906,0.0469 -0.7656,0.1016 -1.125,0.1641l-0.1641,-0.2813zm2.4141,-14.039c-0.4844,0.0312 -0.8594,-0.0782 -1.125,-0.3282c-0.2656,-0.2656 -0.4141,-0.5625 -0.4453,-0.8906c-0.0313,-0.3281 0.0547,-0.6328 0.2578,-0.9141c0.2187,-0.2968 0.5625,-0.4765 1.0313,-0.539c0.4843,-0.0625 0.8671,0.039 1.1484,0.3047c0.2969,0.2656 0.4687,0.5703 0.5156,0.914c0.0469,0.3282 -0.039,0.6485 -0.2578,0.961c-0.2188,0.2968 -0.5938,0.4609 -1.125,0.4922zm15.0938,20.0859c-0.5469,0 -1.086,-0.0859 -1.6172,-0.2578c-0.5313,-0.1719 -0.9922,-0.461 -1.3828,-0.8672c-0.3907,-0.3906 -0.6797,-0.9219 -0.8672,-1.5938c-0.1875,-0.6562 -0.211,-1.4765 -0.0704,-2.4609c0.1094,-0.75 0.1954,-1.4844 0.2579,-2.2031c0.0781,-0.7344 0.1015,-1.4063 0.0703,-2.0157c-0.0313,-0.625 -0.1406,-1.1718 -0.3282,-1.6406c-0.1874,-0.4844 -0.4921,-0.8594 -0.914,-1.125c-0.3906,-0.2656 -0.8984,-0.4218 -1.5234,-0.4687c-0.625,-0.0469 -1.3829,0.0625 -2.2735,0.3281c0.0313,0.6719 0.0703,1.3047 0.1172,1.8984c0.0625,0.5938 0.1328,1.125 0.2109,1.5938c0.0469,0.4687 0.1328,0.875 0.2578,1.2187c0.0938,0.2969 0.2266,0.5625 0.3985,0.7969c0.1719,0.2344 0.3906,0.3203 0.6562,0.2578l-0.164,0.586c-0.3125,-0.1094 -0.6719,-0.1875 -1.0781,-0.2344c-0.3907,-0.0469 -0.8126,-0.0547 -1.2657,-0.0234c-0.4531,0.0312 -0.9219,0.1015 -1.4062,0.2109c-0.4688,0.1094 -0.9219,0.2734 -1.3594,0.4922l-0.1172,-0.3985c0.2344,-0.1718 0.4453,-0.3281 0.6328,-0.4687c0.1875,-0.1406 0.3516,-0.3203 0.4922,-0.5391c0.1563,-0.2187 0.2891,-0.5 0.3985,-0.8437c0.1093,-0.3438 0.2031,-0.8047 0.2812,-1.3828c0.0781,-0.5782 0.1719,-1.3282 0.2812,-2.25c0.125,-0.9375 0.2344,-1.9453 0.3282,-3.0235c0.0937,-1.0781 0.1562,-2.1875 0.1875,-3.3281c0.0312,-1.1406 0,-2.2031 -0.0938,-3.1875c-0.0937,-0.7344 -0.2343,-1.3984 -0.4219,-1.9922c-0.0781,-0.25 -0.1796,-0.4922 -0.3046,-0.7266c-0.1094,-0.25 -0.2422,-0.4687 -0.3985,-0.6562c-0.1562,-0.2031 -0.3359,-0.3672 -0.539,-0.4922c-0.1875,-0.125 -0.3985,-0.1953 -0.6329,-0.2109l0,-0.3516c0.2969,0.0469 0.6329,0.1016 1.0079,0.1641c0.3906,0.0468 0.8281,0.0781 1.3125,0.0937c0.5,0.0157 1.0546,-0.0078 1.664,-0.0703c0.625,-0.0781 1.3203,-0.2266 2.086,-0.4453l0,0.4687c-0.2813,0.1563 -0.5391,0.3204 -0.7735,0.4922c-0.2343,0.1563 -0.4531,0.3828 -0.6562,0.6797c-0.1875,0.2969 -0.3516,0.6875 -0.4922,1.1719c-0.1406,0.4844 -0.2422,1.125 -0.3047,1.9219c-0.0781,0.75 -0.1641,1.6172 -0.2578,2.6015c-0.0781,0.9844 -0.1172,2 -0.1172,3.0469c0,0.375 0,0.7578 0,1.1485c0,0.375 0.0156,0.75 0.0469,1.125c0.75,-0.2657 1.4219,-0.6094 2.0156,-1.0313c0.5937,-0.4375 1.0937,-0.8828 1.5,-1.3359c0.4063,-0.4688 0.7187,-0.9219 0.9375,-1.3594c0.2188,-0.4375 0.3281,-0.8125 0.3281,-1.125c-0.0312,-0.2344 -0.0859,-0.4453 -0.164,-0.6328c-0.0782,-0.1563 -0.1953,-0.2969 -0.3516,-0.4219c-0.1563,-0.1406 -0.3672,-0.2187 -0.6328,-0.2344l0.0703,-0.5859c0.9688,0.125 1.8984,0.1797 2.7891,0.164c0.8906,-0.0312 1.7812,-0.2421 2.6718,-0.6328l0.0938,0.4688c-0.2344,0.1094 -0.4453,0.2187 -0.6328,0.3281c-0.1875,0.0938 -0.3672,0.2109 -0.5391,0.3516c-0.1562,0.1406 -0.3125,0.3281 -0.4687,0.5625c-0.1563,0.2187 -0.3282,0.5078 -0.5157,0.8672c-0.1406,0.2968 -0.3281,0.6406 -0.5625,1.0312c-0.2343,0.3906 -0.5156,0.7813 -0.8437,1.1719c-0.3125,0.375 -0.6797,0.7344 -1.1016,1.0781c-0.4062,0.3281 -0.8515,0.5938 -1.3359,0.7969c1.25,-0.0313 2.2265,0.2969 2.9297,0.9844c0.7031,0.6718 1.1015,1.789 1.1953,3.3515c0.0312,0.7969 -0.0391,1.6016 -0.2109,2.4141c-0.1719,0.7969 -0.3204,1.5469 -0.4454,2.25c-0.125,0.7187 -0.1718,1.3594 -0.1406,1.9219c0.0313,0.5781 0.2656,1.0312 0.7031,1.3593c0.4219,0.3282 0.836,0.5235 1.2422,0.586c0.4219,0.0781 0.8125,0.0469 1.1719,-0.0938c0.3594,-0.125 0.6719,-0.3437 0.9375,-0.6562c0.2813,-0.3125 0.5,-0.6797 0.6563,-1.1016c0.1406,-0.4219 0.2031,-0.7891 0.1874,-1.1015c-0.0156,-0.2969 -0.0859,-0.5469 -0.2109,-0.75c-0.125,-0.1876 -0.2891,-0.3282 -0.4922,-0.4219c-0.1875,-0.0938 -0.3906,-0.1407 -0.6093,-0.1407c-0.4376,0 -0.8282,0.1641 -1.1719,0.4922c-0.3438,0.3282 -0.5313,0.7578 -0.5625,1.2891c-0.0156,0.1875 0.0078,0.3437 0.0703,0.4687c0.0625,0.125 0.1406,0.2188 0.2344,0.2813c0.1093,0.0781 0.2187,0.1328 0.3281,0.1641c0.125,0.0312 0.2422,0.0312 0.3516,0c0.2031,-0.0313 0.4062,-0.1485 0.6093,-0.3516c0.2188,-0.2031 0.3203,-0.4453 0.3047,-0.7266c-0.0937,0.0625 -0.2109,0.1172 -0.3516,0.1641c-0.1406,0.0625 -0.2734,0.0937 -0.3984,0.0937c-0.1094,0 -0.2109,-0.039 -0.3047,-0.1171c-0.0781,-0.0625 -0.1172,-0.1875 -0.1172,-0.375c0,-0.2188 0.0782,-0.3907 0.2344,-0.5157c0.1719,-0.1093 0.3594,-0.164 0.5625,-0.164c0.2031,0 0.3906,0.0625 0.5625,0.1875c0.1719,0.1406 0.2578,0.3437 0.2578,0.6093c0.0157,0.5157 -0.1562,0.9454 -0.5156,1.2891c-0.3437,0.3594 -0.75,0.5391 -1.2187,0.5391c-0.3438,0 -0.6172,-0.1016 -0.8204,-0.3047c-0.1875,-0.1875 -0.3203,-0.4297 -0.3984,-0.7266c-0.0625,-0.2812 -0.0625,-0.5937 0,-0.9375c0.0781,-0.3437 0.2188,-0.664 0.4219,-0.9609c0.2031,-0.2813 0.4687,-0.5235 0.7969,-0.7266c0.3437,-0.1875 0.75,-0.2812 1.2187,-0.2812c0.3281,0 0.6016,0.0625 0.8203,0.1875c0.2188,0.125 0.3906,0.2812 0.5156,0.4687c0.1407,0.2031 0.2422,0.4219 0.3047,0.6563c0.0625,0.2344 0.0938,0.4687 0.0938,0.7031c0.0156,0.4531 -0.0469,0.8828 -0.1875,1.2891c-0.1406,0.4218 -0.3516,0.7968 -0.6328,1.125c-0.2813,0.3281 -0.6328,0.5859 -1.0547,0.7734c-0.4219,0.2031 -0.9063,0.3047 -1.4531,0.3047zm0.3515,-6.0469c0.3594,-0.125 0.6563,-0.289 0.8906,-0.4922c0.2344,-0.2031 0.4141,-0.4062 0.5391,-0.6094c0.1562,-0.2343 0.2578,-0.4765 0.3047,-0.7265c0.3437,-1.5938 0.5156,-3.1094 0.5156,-4.5469c0,-1.4531 -0.1094,-2.6953 -0.3281,-3.7266c-0.0625,-0.3281 -0.1797,-0.6328 -0.3516,-0.914c-0.1406,-0.2344 -0.3359,-0.4531 -0.5859,-0.6563c-0.25,-0.2187 -0.5703,-0.3593 -0.9609,-0.4218l-0.0235,-0.375c0.3125,0.0312 0.6016,0.0547 0.8672,0.0703c0.2813,0 0.5234,0 0.7266,0l0.6562,0c0.1875,0.0156 0.375,0.0234 0.5625,0.0234c0.1719,0.0156 0.3438,0.0234 0.5156,0.0234c0.1875,0 0.3672,0.0157 0.5391,0.0469c-0.0469,0.5625 -0.0859,1.1407 -0.1172,1.7344c-0.0312,0.5781 -0.0547,1.1016 -0.0703,1.5703c-0.0312,0.5469 -0.0469,1.0781 -0.0469,1.5938c-0.0312,0.5781 -0.0547,1.2109 -0.0703,1.8984c-0.0156,0.6719 -0.0078,1.3125 0.0234,1.9219c0.0313,0.6093 0.086,1.1484 0.1641,1.6172c0.0781,0.4531 0.2031,0.75 0.375,0.8906c0.0938,0.0625 0.2188,0.125 0.375,0.1875c0.125,0.0625 0.2891,0.125 0.4922,0.1875c0.2187,0.0625 0.4844,0.125 0.7969,0.1875l0.0234,0.3984c-0.3125,-0.0156 -0.6172,-0.0156 -0.914,0c-0.2813,0 -0.5313,0 -0.75,0c-0.2657,0.0156 -0.5157,0.0235 -0.75,0.0235c-0.3282,0.0156 -0.6797,0.0468 -1.0547,0.0937c-0.3125,0.0313 -0.6641,0.0703 -1.0547,0.1172c-0.3906,0.0469 -0.7656,0.1016 -1.125,0.1641l-0.1641,-0.2813zm2.4141,-14.039c-0.4844,0.0312 -0.8594,-0.0782 -1.125,-0.3282c-0.2656,-0.2656 -0.4141,-0.5625 -0.4453,-0.8906c-0.0313,-0.3281 0.0547,-0.6328 0.2578,-0.9141c0.2187,-0.2968 0.5625,-0.4765 1.0312,-0.539c0.4844,-0.0625 0.8672,0.039 1.1485,0.3047c0.2968,0.2656 0.4687,0.5703 0.5156,0.914c0.0469,0.3282 -0.0391,0.6485 -0.2578,0.961c-0.2188,0.2968 -0.5938,0.4609 -1.125,0.4922z"/>
  <path id="svg_2" fill="#291507" d="m120.65,25.886l-1.04,3.1207l-1.04,3.9529c0,0 -2.705,1.4564 -2.913,0.4161c-0.208,-1.0402 1.04,-1.2483 1.04,-1.2483l0.416,-2.0804l-3.12,-5.6173l6.657,1.4563z"/>
  <path id="svg_3" fill="#ffffff" d="m120.65,25.886l-1.04,3.1207l-1.04,3.9529c0,0 -2.705,1.4564 -2.913,0.4161c-0.208,-1.0402 1.04,-1.2483 1.04,-1.2483l0.416,-2.0804l-3.12,-5.6173l6.657,1.4563z"/>
  <path id="svg_4" fill="#291507" d="m102.966,24.6379l-1.872,8.53c0,0 -1.4567,0.8322 -2.4969,0.4161c-1.0403,-0.4161 0.6241,-1.4564 0.6241,-1.4564c0,0 -0.6241,-5.2011 -3.7448,-5.8253c-3.1207,-0.6241 7.4896,-1.6644 7.4896,-1.6644z"/>
  <path id="svg_5" fill="#ffffff" d="m102.966,24.6379l-1.872,8.53c0,0 -1.4567,0.8322 -2.4969,0.4161c-1.0403,-0.4161 0.6241,-1.4564 0.6241,-1.4564c0,0 -0.6241,-5.2011 -3.7448,-5.8253c-3.1207,-0.6241 7.4896,-1.6644 7.4896,-1.6644z"/>
  <path id="svg_6" fill="#291507" d="m90.6913,14.6517c0,0 4.1609,1.4563 7.9058,0.6241c0,0 7.2819,-1.0402 7.9059,-1.2483c0.624,-0.208 7.698,-0.6241 11.442,0c0,0 10.403,-8.11381 4.578,-11.65061c0,0 -2.497,1.24828 -3.121,0.41609c-0.234,-0.31207 -0.117,-0.71191 0.12,-1.08981c0.269,-0.41062 0.633,-0.74968 1.062,-0.98787c0.429,-0.23819 0.91,-0.36834 1.4,-0.3792c2.174,-0.0814 6.07,0.69981 4.302,7.80784c-0.504,1.96056 -1.433,3.78646 -2.72,5.34866c-0.948,1.168 -1.928,2.7844 -1.46,4.0717c0.833,2.2886 1.041,5.8254 1.041,5.8254l2.912,4.3689c0,0 1.665,5.4093 1.665,5.6173c0,0.2081 -2.264,0.6494 -2.705,0.2081c-0.416,-0.4161 0.624,-1.2483 0.624,-1.2483c0,0 -0.832,-1.6644 -2.288,-2.0805c-1.457,-0.4161 -5.41,-1.8724 -6.034,-2.4966c-0.624,-0.6241 -13.939,-4.3689 -17.6837,-0.8321c-2.1015,2.0076 -4.3249,3.8836 -6.6575,5.6172c0,0 -1.0402,1.4564 -2.2885,1.4564c-1.2483,0 -1.4563,-1.8725 0,-2.0805c1.4563,-0.2081 3.5368,-5.2012 3.5368,-5.2012c0,0 0.6241,-3.7448 -2.4966,-4.369c-1.7203,-0.344 -2.7452,-0.372 -3.3186,-0.3278c-0.229,0.0191 -0.4595,-0.0082 -0.6777,-0.0802c-0.2182,-0.0719 -0.4198,-0.1871 -0.5926,-0.3385c-0.3712,-0.357 -0.7038,-0.7522 -0.9921,-1.179c-0.0761,-0.1084 -0.1251,-0.2334 -0.1429,-0.3646c-0.0179,-0.1312 -0.0041,-0.2648 0.0403,-0.3896c0.2771,-0.7563 0.5077,-1.5289 0.6905,-2.3134c0.208,-1.0402 1.8724,-1.8724 1.8724,-1.8724c0,0 0.4161,-2.9127 1.0403,-2.0805c0.3198,0.4378 0.6672,0.8547 1.0402,1.2483z"/>
  <path stroke-width="0" id="svg_7" fill="#ffffff" d="m90.6913,14.6517c0,0 4.1609,1.4563 7.9058,0.6241c0,0 7.2819,-1.0402 7.9059,-1.2483c0.624,-0.208 7.698,-0.6241 11.442,0c0,0 10.403,-8.11381 4.578,-11.65061c0,0 -2.497,1.24828 -3.121,0.41609c-0.234,-0.31207 -0.117,-0.71191 0.12,-1.08981c0.269,-0.41062 0.633,-0.74968 1.062,-0.98787c0.429,-0.23819 0.91,-0.36834 1.4,-0.3792c2.174,-0.0814 6.07,0.69981 4.302,7.80784c-0.504,1.96056 -1.433,3.78646 -2.72,5.34866c-0.948,1.168 -1.928,2.7844 -1.46,4.0717c0.833,2.2886 1.041,5.8254 1.041,5.8254l2.912,4.3689c0,0 1.665,5.4093 1.665,5.6173c0,0.2081 -2.264,0.6494 -2.705,0.2081c-0.416,-0.4161 0.624,-1.2483 0.624,-1.2483c0,0 -0.832,-1.6644 -2.288,-2.0805c-1.457,-0.4161 -5.41,-1.8724 -6.034,-2.4966c-0.624,-0.6241 -13.939,-4.3689 -17.6837,-0.8321c-2.1015,2.0076 -4.3249,3.8836 -6.6575,5.6172c0,0 -1.0402,1.4564 -2.2885,1.4564c-1.2483,0 -1.4563,-1.8725 0,-2.0805c1.4563,-0.2081 3.5368,-5.2012 3.5368,-5.2012c0,0 0.6241,-3.7448 -2.4966,-4.369c-1.7203,-0.344 -2.7452,-0.372 -3.3186,-0.3278c-0.229,0.0191 -0.4595,-0.0082 -0.6777,-0.0802c-0.2182,-0.0719 -0.4198,-0.1871 -0.5926,-0.3385c-0.3712,-0.357 -0.7038,-0.7522 -0.9921,-1.179c-0.0761,-0.1084 -0.1251,-0.2334 -0.1429,-0.3646c-0.0179,-0.1312 -0.0041,-0.2648 0.0403,-0.3896c0.2771,-0.7563 0.5077,-1.5289 0.6905,-2.3134c0.208,-1.0402 1.8724,-1.8724 1.8724,-1.8724c0,0 0.4161,-2.9127 1.0403,-2.0805c0.3198,0.4378 0.6672,0.8547 1.0402,1.2483z"/>
 </g>
</svg>